<svg width="22" height="21" fill="none" xmlns="http://www.w3.org/2000/svg"><rect x="1" y="2" width="20" height="18" rx="6" stroke="#F0F4F8" stroke-width="1.4"/><path stroke="#F0F4F8" stroke-width="1.4" stroke-linecap="round" d="M15.7.7v2.6M6.7.7v2.6"/><path d="M11.7 8a.7.7 0 11-1.4 0 .7.7 0 011.4 0zm5 0a.7.7 0 11-1.4 0 .7.7 0 011.4 0zm-10 0a.7.7 0 11-1.4 0 .7.7 0 011.4 0zm5 4a.7.7 0 11-1.4 0 .7.7 0 011.4 0zm-5 0a.7.7 0 11-1.4 0 .7.7 0 011.4 0zm10 0a.7.7 0 11-1.4 0 .7.7 0 011.4 0zm0 4a.7.7 0 11-1.4 0 .7.7 0 011.4 0zm-5 0a.7.7 0 11-1.4 0 .7.7 0 011.4 0zm-5 0a.7.7 0 11-1.4 0 .7.7 0 011.4 0z" fill="#F0F4F8"/></svg>