<svg width="22" height="21" viewBox="0 0 22 21" fill="none" xmlns="http://www.w3.org/2000/svg">
<rect x="1" y="2" width="20" height="18" rx="6" stroke="#F0F4F8" stroke-width="1.4"/>
<line x1="15.7" y1="0.7" x2="15.7" y2="3.3" stroke="#F0F4F8" stroke-width="1.4" stroke-linecap="round"/>
<line x1="6.7" y1="0.7" x2="6.7" y2="3.3" stroke="#F0F4F8" stroke-width="1.4" stroke-linecap="round"/>
<path d="M11.7 8.00003C11.7 8.38663 11.3866 8.70003 11 8.70003C10.6134 8.70003 10.3 8.38663 10.3 8.00003C10.3 7.61343 10.6134 7.30003 11 7.30003C11.3866 7.30003 11.7 7.61343 11.7 8.00003Z" fill="#F0F4F8"/>
<path d="M16.7 8.00003C16.7 8.38663 16.3866 8.70003 16 8.70003C15.6134 8.70003 15.3 8.38663 15.3 8.00003C15.3 7.61343 15.6134 7.30003 16 7.30003C16.3866 7.30003 16.7 7.61343 16.7 8.00003Z" fill="#F0F4F8"/>
<path d="M6.69998 8.00003C6.69998 8.38663 6.38658 8.70003 5.99998 8.70003C5.61339 8.70003 5.29998 8.38663 5.29998 8.00003C5.29998 7.61343 5.61339 7.30003 5.99998 7.30003C6.38658 7.30003 6.69998 7.61343 6.69998 8.00003Z" fill="#F0F4F8"/>
<path d="M11.7 12C11.7 12.3866 11.3866 12.7 11 12.7C10.6134 12.7 10.3 12.3866 10.3 12C10.3 11.6134 10.6134 11.3 11 11.3C11.3866 11.3 11.7 11.6134 11.7 12Z" fill="#F0F4F8"/>
<path d="M6.69998 12C6.69998 12.3866 6.38658 12.7 5.99998 12.7C5.61339 12.7 5.29998 12.3866 5.29998 12C5.29998 11.6134 5.61339 11.3 5.99998 11.3C6.38658 11.3 6.69998 11.6134 6.69998 12Z" fill="#F0F4F8"/>
<path d="M16.7 12C16.7 12.3866 16.3866 12.7 16 12.7C15.6134 12.7 15.3 12.3866 15.3 12C15.3 11.6134 15.6134 11.3 16 11.3C16.3866 11.3 16.7 11.6134 16.7 12Z" fill="#F0F4F8"/>
<path d="M16.7 16C16.7 16.3866 16.3866 16.7 16 16.7C15.6134 16.7 15.3 16.3866 15.3 16C15.3 15.6134 15.6134 15.3 16 15.3C16.3866 15.3 16.7 15.6134 16.7 16Z" fill="#F0F4F8"/>
<path d="M11.7 16C11.7 16.3866 11.3866 16.7 11 16.7C10.6134 16.7 10.3 16.3866 10.3 16C10.3 15.6134 10.6134 15.3 11 15.3C11.3866 15.3 11.7 15.6134 11.7 16Z" fill="#F0F4F8"/>
<path d="M6.69998 16C6.69998 16.3866 6.38658 16.7 5.99998 16.7C5.61339 16.7 5.29998 16.3866 5.29998 16C5.29998 15.6134 5.61339 15.3 5.99998 15.3C6.38658 15.3 6.69998 15.6134 6.69998 16Z" fill="#F0F4F8"/>
</svg>
