<svg width="22" height="22" fill="none" xmlns="http://www.w3.org/2000/svg"><path d="M17.599 20.534H1.469V4.404h9.693l1.466-1.466H1.469A1.466 1.466 0 00.003 4.404v16.13A1.466 1.466 0 001.47 22H17.6a1.466 1.466 0 001.466-1.466V9.536L17.6 11.003v9.53z" fill="#fff"/><path d="M21.653 2.82L19.183.35a1.18 1.18 0 00-1.672 0L7.459 10.46l-.814 3.527a1.18 1.18 0 001.152 1.415c.09.01.18.01.27 0l3.557-.785 10.03-10.125a1.182 1.182 0 000-1.671zM10.861 13.26l-2.683.595.623-2.662 7.566-7.617 2.067 2.067-7.573 7.618zm8.402-8.445l-2.068-2.068 1.137-1.158 2.082 2.082-1.151 1.144z" fill="#fff"/></svg>