<svg width="14" height="18" fill="none" xmlns="http://www.w3.org/2000/svg"><path d="M7 0a6.973 6.973 0 00-4.947 2.074A7.116 7.116 0 000 7.07a7.047 7.047 0 001.41 4.243s.191.254.222.29L7 18l5.37-6.398c.028-.034.22-.288.22-.288v-.002A7.044 7.044 0 0014 7.072a7.116 7.116 0 00-2.053-4.998A6.973 6.973 0 007 0zm0 9.643c-.503 0-.996-.15-1.414-.434a2.566 2.566 0 01-.938-1.154A2.596 2.596 0 015.2 5.253a2.522 2.522 0 012.774-.557c.465.194.863.524 1.142.947A2.59 2.59 0 018.8 8.889a2.536 2.536 0 01-1.8.754z" fill="#fff"/></svg>