<svg width="17" height="19" fill="none" xmlns="http://www.w3.org/2000/svg"><path fill-rule="evenodd" clip-rule="evenodd" d="M4.375.069c-.224.125-.266.224-.28.657l-.011.387H2.266c-1.744 0-1.823.003-1.964.075a.533.533 0 00-.224.218L0 1.55v8.513c0 8.217.002 8.516.066 8.641a.632.632 0 00.204.212L.41 19h6.146c6.09.002 6.146 0 6.285-.073a.501.501 0 00.212-.221c.071-.145.072-.21.072-4.37v-4.223l1.904-1.985c2.031-2.119 2.01-2.093 1.957-2.4-.022-.123-.138-.26-.867-1.026-.463-.486-.885-.908-.938-.937a.539.539 0 00-.431-.012c-.043.023-.426.402-.851.844l-.774.803V3.475c0-1.91 0-1.926-.078-2.069a.533.533 0 00-.224-.218c-.142-.072-.22-.075-2.071-.075H8.827l-.012-.38C8.805.41 8.79.335 8.723.237 8.558-.005 8.606 0 6.45 0 4.62 0 4.49.004 4.375.069zM7.753 1.67v.557H5.157V1.113h2.596v.557zm-3.663.9c0 .398.056.554.245.686l.121.084h3.998l.121-.084c.19-.132.245-.288.245-.686v-.343h3.237V4.49H1.067V2.227H4.09v.343zm11.257 3.664l-.373.39-.382-.399-.382-.398.372-.39.372-.39.384.399.383.398-.374.39zm-3.29-.175v.454l-1.165 1.215-1.165 1.216H8.63c-1.063 0-1.102.002-1.236.08a.651.651 0 00-.28.476c0 .162.134.39.28.476.126.074.188.08.702.08h.564l-.533.558-.533.556H2.608l-.153.085a.557.557 0 00-.028.954c.112.072.183.074 2.081.074 1.08 0 1.965.013 1.965.029 0 .015-.232.27-.516.566l-.516.537-1.49.019-1.491.019-.095.092c-.341.333-.216.854.231.962.09.022.608.039 1.184.04h1.023l-.019.084c-.024.105-.196.998-.196 1.016 0 .008-.46.014-1.022.014-.958 0-1.03.005-1.139.074a.557.557 0 00.028.954c.15.084.171.085 1.39.085h1.237l.935-.201c.515-.11.984-.213 1.043-.227.078-.02.752-.699 2.552-2.573l2.445-2.546v6.66H1.067V5.604h10.99v.455zm1.779.974l.372.39-3.031 3.163-3.032 3.163-.382-.399-.383-.399 3.023-3.154a361.292 361.292 0 013.042-3.154c.01 0 .186.175.39.39zM2.427 6.79a.689.689 0 00-.187.195c-.069.116-.071.175-.062 1.426.009 1.246.013 1.31.082 1.407a.71.71 0 00.195.17c.114.063.23.068 1.652.067 2.116 0 1.94.151 1.94-1.668C6.046 7 6.04 6.968 5.8 6.8l-.12-.084H4.11c-1.502 0-1.573.003-1.684.074zm4.985-.021c-.175.08-.28.265-.28.492 0 .207.064.333.244.473.094.074.143.077 1.196.077 1.057 0 1.1-.003 1.197-.078.335-.258.342-.705.015-.933-.119-.083-.136-.084-1.191-.083-.819.002-1.097.014-1.181.052zM4.979 8.387v.557H3.237V7.83h1.742v.557zm2.028 5.772l.373.39-.373.382-.374.382-.44.083c-.242.045-.448.074-.458.064-.01-.01.02-.224.065-.475l.082-.456.356-.38c.195-.21.365-.381.376-.381.011 0 .188.176.393.39z" fill="#FFB500"/></svg>