<svg width="16" height="17" fill="none" xmlns="http://www.w3.org/2000/svg"><path d="M0 2.3A2.3 2.3 0 012.3 0h9.549a2.3 2.3 0 012.299 2.3v8.58a1.592 1.592 0 00-.241.197l-.82.82V2.3a1.238 1.238 0 00-1.238-1.238h-9.55A1.238 1.238 0 001.061 2.3v12.38c0 .683.555 1.237 1.238 1.237h5.707l1.061 1.062H2.3A2.3 2.3 0 010 14.678V2.3z" fill="#3AF883"/><path d="M4.598 4.775a.884.884 0 11-1.768 0 .884.884 0 011.768 0zm-.884 4.598a.884.884 0 100-1.768.884.884 0 000 1.768zm0 3.714a.884.884 0 100-1.769.884.884 0 000 1.769zM6.19 4.244a.53.53 0 000 1.061h4.598a.53.53 0 000-1.06H6.19zm-.53 4.245a.53.53 0 01.53-.53h4.598a.53.53 0 010 1.06H6.19a.53.53 0 01-.53-.53zm.53 3.183a.53.53 0 000 1.061h4.598a.53.53 0 000-1.06H6.19zm9.217.906l-4.244 4.244a.53.53 0 01-.75 0l-2.12-2.12a.53.53 0 01.749-.75l1.746 1.745 3.87-3.87a.527.527 0 01.582-.122.53.53 0 01.167.873z" fill="#3AF883"/></svg>