<svg width="20" height="20" viewBox="0 0 20 20" fill="none" xmlns="http://www.w3.org/2000/svg">
<path d="M11.3016 8.52753C10.5658 7.79198 9.56793 7.37878 8.5275 7.37878C7.48707 7.37878 6.48923 7.79198 5.75338 8.52753L2.97837 11.3016C2.2425 12.0375 1.8291 13.0355 1.8291 14.0762C1.8291 15.1169 2.2425 16.1149 2.97837 16.8508C3.71423 17.5866 4.71227 18 5.75293 18C6.7936 18 7.79164 17.5866 8.5275 16.8508L9.91456 15.4637" stroke="#fff" stroke-width="2.38298" stroke-linecap="round" stroke-linejoin="round"/>
<path d="M8.52734 11.3016C9.26319 12.0372 10.261 12.4504 11.3015 12.4504C12.3419 12.4504 13.3397 12.0372 14.0756 11.3016L16.8506 8.5275C17.5865 7.79164 17.9999 6.7936 17.9999 5.75293C17.9999 4.71227 17.5865 3.71423 16.8506 2.97837C16.1147 2.2425 15.1167 1.8291 14.076 1.8291C13.0354 1.8291 12.0373 2.2425 11.3015 2.97837L9.9144 4.36543" stroke="#fff" stroke-width="2.38298" stroke-linecap="round" stroke-linejoin="round"/>
</svg>
