<svg width="16" height="17" viewBox="0 0 16 17" fill="none" xmlns="http://www.w3.org/2000/svg">
<path d="M0 2.29906C0 1.68931 0.242221 1.10454 0.673378 0.673378C1.10453 0.242221 1.68931 0 2.29906 0H11.849C12.4587 0 13.0435 0.242221 13.4747 0.673378C13.9058 1.10454 14.148 1.68931 14.148 2.29906V10.8791C14.0632 10.9357 13.9818 11.0022 13.9068 11.0772L13.0869 11.8971V2.29906C13.0869 1.97073 12.9565 1.65585 12.7244 1.42369C12.4922 1.19153 12.1773 1.0611 11.849 1.0611H2.29906C1.97073 1.0611 1.65585 1.19153 1.42369 1.42369C1.19153 1.65585 1.0611 1.97073 1.0611 2.29906V14.6786C1.0611 15.3619 1.61571 15.9165 2.29906 15.9165H8.00638L9.06748 16.9777H2.29906C1.68931 16.9777 1.10453 16.7354 0.673378 16.3043C0.242221 15.8731 0 15.2883 0 14.6786V2.29906Z" fill="#3AF883"/>
<path d="M4.59803 4.77488C4.59803 5.0094 4.50487 5.23431 4.33904 5.40014C4.17321 5.56597 3.9483 5.65913 3.71378 5.65913C3.47926 5.65913 3.25435 5.56597 3.08852 5.40014C2.92269 5.23431 2.82953 5.0094 2.82953 4.77488C2.82953 4.54036 2.92269 4.31545 3.08852 4.14962C3.25435 3.98379 3.47926 3.89062 3.71378 3.89062C3.9483 3.89062 4.17321 3.98379 4.33904 4.14962C4.50487 4.31545 4.59803 4.54036 4.59803 4.77488Z" fill="#3AF883"/>
<path d="M3.71378 9.37312C3.9483 9.37312 4.17321 9.27996 4.33904 9.11413C4.50487 8.9483 4.59803 8.72339 4.59803 8.48887C4.59803 8.25435 4.50487 8.02944 4.33904 7.86361C4.17321 7.69778 3.9483 7.60461 3.71378 7.60461C3.47926 7.60461 3.25435 7.69778 3.08852 7.86361C2.92269 8.02944 2.82953 8.25435 2.82953 8.48887C2.82953 8.72339 2.92269 8.9483 3.08852 9.11413C3.25435 9.27996 3.47926 9.37312 3.71378 9.37312Z" fill="#3AF883"/>
<path d="M3.71378 13.087C3.9483 13.087 4.17321 12.9938 4.33904 12.828C4.50487 12.6622 4.59803 12.4373 4.59803 12.2027C4.59803 11.9682 4.50487 11.7433 4.33904 11.5775C4.17321 11.4116 3.9483 11.3185 3.71378 11.3185C3.47926 11.3185 3.25435 11.4116 3.08852 11.5775C2.92269 11.7433 2.82953 11.9682 2.82953 12.2027C2.82953 12.4373 2.92269 12.6622 3.08852 12.828C3.25435 12.9938 3.47926 13.087 3.71378 13.087Z" fill="#3AF883"/>
<path d="M6.18991 4.24438C6.0492 4.24438 5.91426 4.30028 5.81476 4.39978C5.71526 4.49928 5.65936 4.63423 5.65936 4.77494C5.65936 4.91565 5.71526 5.0506 5.81476 5.15009C5.91426 5.24959 6.0492 5.30549 6.18991 5.30549H10.788C10.9287 5.30549 11.0637 5.24959 11.1632 5.15009C11.2627 5.0506 11.3186 4.91565 11.3186 4.77494C11.3186 4.63423 11.2627 4.49928 11.1632 4.39978C11.0637 4.30028 10.9287 4.24438 10.788 4.24438H6.18991Z" fill="#3AF883"/>
<path d="M5.65936 8.4888C5.65936 8.34809 5.71526 8.21314 5.81476 8.11365C5.91426 8.01415 6.0492 7.95825 6.18991 7.95825H10.788C10.9287 7.95825 11.0637 8.01415 11.1632 8.11365C11.2627 8.21314 11.3186 8.34809 11.3186 8.4888C11.3186 8.62951 11.2627 8.76446 11.1632 8.86396C11.0637 8.96346 10.9287 9.01936 10.788 9.01936H6.18991C6.0492 9.01936 5.91426 8.96346 5.81476 8.86396C5.71526 8.76446 5.65936 8.62951 5.65936 8.4888Z" fill="#3AF883"/>
<path d="M6.18991 11.6721C6.0492 11.6721 5.91426 11.728 5.81476 11.8275C5.71526 11.927 5.65936 12.062 5.65936 12.2027C5.65936 12.3434 5.71526 12.4783 5.81476 12.5778C5.91426 12.6773 6.0492 12.7332 6.18991 12.7332H10.788C10.9287 12.7332 11.0637 12.6773 11.1632 12.5778C11.2627 12.4783 11.3186 12.3434 11.3186 12.2027C11.3186 12.062 11.2627 11.927 11.1632 11.8275C11.0637 11.728 10.9287 11.6721 10.788 11.6721H6.18991Z" fill="#3AF883"/>
<path d="M15.4072 12.5776L11.1628 16.822C11.0633 16.9214 10.9285 16.9772 10.7879 16.9772C10.6473 16.9772 10.5124 16.9214 10.413 16.822L8.29217 14.7012C8.19846 14.6007 8.14744 14.4676 8.14986 14.3302C8.15229 14.1927 8.20797 14.0616 8.30518 13.9644C8.40238 13.8672 8.53352 13.8115 8.67097 13.8091C8.80842 13.8067 8.94145 13.8577 9.04202 13.9514L10.7879 15.6966L14.6574 11.8271C14.7063 11.7764 14.7649 11.736 14.8297 11.7083C14.8944 11.6805 14.964 11.6659 15.0345 11.6653C15.1049 11.6647 15.1748 11.6782 15.24 11.7049C15.3051 11.7316 15.3644 11.771 15.4142 11.8209C15.4639 11.8707 15.5033 11.9299 15.53 11.9952C15.5566 12.0604 15.57 12.1302 15.5694 12.2007C15.5687 12.2711 15.554 12.3408 15.5262 12.4055C15.4984 12.4702 15.4579 12.5287 15.4072 12.5776Z" fill="#3AF883"/>
</svg>
